<svg width="21" height="20" viewBox="0 0 21 20" fill="none" xmlns="http://www.w3.org/2000/svg">
<path d="M13.4059 6.66667C14.732 6.66667 16.0038 7.19345 16.9415 8.13113C17.8791 9.06882 18.4059 10.3406 18.4059 11.6667V17.5H15.0726V11.6667C15.0726 11.2246 14.897 10.8007 14.5844 10.4882C14.2719 10.1756 13.848 10 13.4059 10C12.9639 10 12.54 10.1756 12.2274 10.4882C11.9149 10.8007 11.7393 11.2246 11.7393 11.6667V17.5H8.40592V11.6667C8.40592 10.3406 8.93271 9.06882 9.87039 8.13113C10.8081 7.19345 12.0798 6.66667 13.4059 6.66667Z" stroke="white" stroke-linecap="round" stroke-linejoin="round"/>
<path d="M5.07259 7.5H1.73926V17.5H5.07259V7.5Z" stroke="white" stroke-linecap="round" stroke-linejoin="round"/>
<path d="M3.40592 5C4.3264 5 5.07259 4.25381 5.07259 3.33333C5.07259 2.41286 4.3264 1.66667 3.40592 1.66667C2.48545 1.66667 1.73926 2.41286 1.73926 3.33333C1.73926 4.25381 2.48545 5 3.40592 5Z" stroke="white" stroke-linecap="round" stroke-linejoin="round"/>
</svg>
