<svg width="21" height="20" viewBox="0 0 21 20" fill="none" xmlns="http://www.w3.org/2000/svg">
<path d="M2.15585 14.1667C1.5737 11.4194 1.5737 8.58061 2.15585 5.83333C2.23234 5.55434 2.38013 5.30006 2.58469 5.09551C2.78925 4.89095 3.04352 4.74316 3.32252 4.66667C7.79206 3.92622 12.353 3.92622 16.8225 4.66667C17.1015 4.74316 17.3558 4.89095 17.5603 5.09551C17.7649 5.30006 17.9127 5.55434 17.9892 5.83333C18.5713 8.58061 18.5713 11.4194 17.9892 14.1667C17.9127 14.4457 17.7649 14.6999 17.5603 14.9045C17.3558 15.1091 17.1015 15.2568 16.8225 15.3333C12.353 16.0739 7.79204 16.0739 3.32252 15.3333C3.04352 15.2568 2.78925 15.1091 2.58469 14.9045C2.38013 14.6999 2.23234 14.4457 2.15585 14.1667Z" stroke="white" stroke-linecap="round" stroke-linejoin="round"/>
<path d="M8.40585 12.5L12.5725 10L8.40585 7.5V12.5Z" stroke="white" stroke-linecap="round" stroke-linejoin="round"/>
</svg>
