<svg width="16" height="16" viewBox="0 0 16 16" fill="none" xmlns="http://www.w3.org/2000/svg">
<path d="M5.88525 9.5625C6.29965 9.5625 6.69708 9.39788 6.99011 9.10485C7.28313 8.81183 7.44775 8.4144 7.44775 8C7.44775 7.1375 7.13525 6.75 6.82275 6.125C6.15275 4.78563 6.68275 3.59125 8.07275 2.375C8.38525 3.9375 9.32275 5.4375 10.5728 6.4375C11.8228 7.4375 12.4478 8.625 12.4478 9.875C12.4478 10.4495 12.3346 11.0184 12.1147 11.5492C11.8949 12.08 11.5726 12.5623 11.1663 12.9686C10.7601 13.3748 10.2778 13.6971 9.74699 13.917C9.21619 14.1368 8.64729 14.25 8.07275 14.25C7.49822 14.25 6.92931 14.1368 6.39851 13.917C5.86771 13.6971 5.38542 13.3748 4.97916 12.9686C4.57291 12.5623 4.25065 12.08 4.03078 11.5492C3.81092 11.0184 3.69775 10.4495 3.69775 9.875C3.69775 9.15438 3.96838 8.44125 4.32275 8C4.32275 8.4144 4.48737 8.81183 4.7804 9.10485C5.07343 9.39788 5.47085 9.5625 5.88525 9.5625Z" stroke="white" stroke-linecap="round" stroke-linejoin="round"/>
</svg>
